<mxfile host="app.diagrams.net" modified="2022-04-27T19:19:51.173Z" agent="5.0 (Windows NT 10.0; Win64; x64) AppleWebKit/537.36 (KHTML, like Gecko) Chrome/100.0.4896.127 Safari/537.36" etag="OPI9ZjmUwI2oRoA1DZ4r" version="17.4.6" type="github">
  <diagram id="nomdYBCZ-moeF6U-7X6A" name="Page-1">
    <mxGraphModel dx="2622" dy="1962" grid="1" gridSize="10" guides="1" tooltips="1" connect="1" arrows="1" fold="1" page="0" pageScale="1" pageWidth="827" pageHeight="1169" math="0" shadow="0">
      <root>
        <mxCell id="0" />
        <mxCell id="1" parent="0" />
        <mxCell id="5G6M97Ru5O6IGqaMy1Rf-23" value="NSX-T Private Cloud Network" style="points=[[0,0],[0.25,0],[0.5,0],[0.75,0],[1,0],[1,0.25],[1,0.5],[1,0.75],[1,1],[0.75,1],[0.5,1],[0.25,1],[0,1],[0,0.75],[0,0.5],[0,0.25]];outlineConnect=0;gradientColor=none;html=1;whiteSpace=wrap;fontSize=12;fontStyle=0;shape=mxgraph.aws4.group;grIcon=mxgraph.aws4.group_vpc;strokeColor=#248814;fillColor=none;verticalAlign=top;align=left;spacingLeft=30;dashed=0;fontColor=#248814;" parent="1" vertex="1">
          <mxGeometry x="-1000" y="-760" width="820" height="820" as="geometry" />
        </mxCell>
        <mxCell id="5G6M97Ru5O6IGqaMy1Rf-31" value="vCenter" style="strokeColor=#147EBA;dashed=1;verticalAlign=top;fontStyle=0;fontColor=#147EBA;" parent="1" vertex="1">
          <mxGeometry x="-960" y="-730" width="270" height="770" as="geometry" />
        </mxCell>
        <mxCell id="c6Vy-CROt2XTyNM5Ch-J-39" value="vCenter" style="strokeColor=#147EBA;dashed=1;verticalAlign=top;fontStyle=0;fontColor=#147EBA;" vertex="1" parent="1">
          <mxGeometry x="-630" y="-730" width="270" height="770" as="geometry" />
        </mxCell>
        <mxCell id="c6Vy-CROt2XTyNM5Ch-J-2" value="Corporate data center" style="points=[[0,0],[0.25,0],[0.5,0],[0.75,0],[1,0],[1,0.25],[1,0.5],[1,0.75],[1,1],[0.75,1],[0.5,1],[0.25,1],[0,1],[0,0.75],[0,0.5],[0,0.25]];outlineConnect=0;gradientColor=none;html=1;whiteSpace=wrap;fontSize=12;fontStyle=0;container=1;pointerEvents=0;collapsible=0;recursiveResize=0;shape=mxgraph.aws4.group;grIcon=mxgraph.aws4.group_corporate_data_center;strokeColor=#5A6C86;fillColor=none;verticalAlign=top;align=left;spacingLeft=30;fontColor=#5A6C86;dashed=0;" vertex="1" parent="1">
          <mxGeometry x="-1030" y="-840" width="870" height="920" as="geometry" />
        </mxCell>
        <mxCell id="c6Vy-CROt2XTyNM5Ch-J-16" value="ESXi Host" style="pointerEvents=1;shadow=0;dashed=0;html=1;strokeColor=none;fillColor=#4495D1;labelPosition=center;verticalLabelPosition=bottom;verticalAlign=top;align=center;outlineConnect=0;shape=mxgraph.veeam.vmware_host;" vertex="1" parent="c6Vy-CROt2XTyNM5Ch-J-2">
          <mxGeometry x="80" y="260" width="250" height="210" as="geometry" />
        </mxCell>
        <mxCell id="c6Vy-CROt2XTyNM5Ch-J-17" value="Kubernetes&lt;br style=&quot;font-size: 11px;&quot;&gt;Nodes" style="sketch=0;html=1;dashed=0;whitespace=wrap;fillColor=#2875E2;strokeColor=#ffffff;points=[[0.005,0.63,0],[0.1,0.2,0],[0.9,0.2,0],[0.5,0,0],[0.995,0.63,0],[0.72,0.99,0],[0.5,1,0],[0.28,0.99,0]];shape=mxgraph.kubernetes.icon;prIcon=node;verticalAlign=top;labelPosition=center;verticalLabelPosition=bottom;align=center;fontSize=11;" vertex="1" parent="c6Vy-CROt2XTyNM5Ch-J-2">
          <mxGeometry x="85" y="170" width="40" height="60" as="geometry" />
        </mxCell>
        <mxCell id="c6Vy-CROt2XTyNM5Ch-J-18" value="Kubernetes&lt;br style=&quot;font-size: 11px;&quot;&gt;Nodes" style="sketch=0;html=1;dashed=0;whitespace=wrap;fillColor=#2875E2;strokeColor=#ffffff;points=[[0.005,0.63,0],[0.1,0.2,0],[0.9,0.2,0],[0.5,0,0],[0.995,0.63,0],[0.72,0.99,0],[0.5,1,0],[0.28,0.99,0]];shape=mxgraph.kubernetes.icon;prIcon=node;verticalAlign=top;labelPosition=center;verticalLabelPosition=bottom;align=center;fontSize=11;" vertex="1" parent="c6Vy-CROt2XTyNM5Ch-J-2">
          <mxGeometry x="150" y="170" width="40" height="60" as="geometry" />
        </mxCell>
        <mxCell id="c6Vy-CROt2XTyNM5Ch-J-19" value="Kubernetes&lt;br style=&quot;font-size: 11px;&quot;&gt;Nodes" style="sketch=0;html=1;dashed=0;whitespace=wrap;fillColor=#2875E2;strokeColor=#ffffff;points=[[0.005,0.63,0],[0.1,0.2,0],[0.9,0.2,0],[0.5,0,0],[0.995,0.63,0],[0.72,0.99,0],[0.5,1,0],[0.28,0.99,0]];shape=mxgraph.kubernetes.icon;prIcon=node;verticalAlign=top;labelPosition=center;verticalLabelPosition=bottom;align=center;fontSize=11;" vertex="1" parent="c6Vy-CROt2XTyNM5Ch-J-2">
          <mxGeometry x="215" y="170" width="40" height="60" as="geometry" />
        </mxCell>
        <mxCell id="c6Vy-CROt2XTyNM5Ch-J-20" value="Kubernetes&lt;br style=&quot;font-size: 11px;&quot;&gt;Nodes" style="sketch=0;html=1;dashed=0;whitespace=wrap;fillColor=#2875E2;strokeColor=#ffffff;points=[[0.005,0.63,0],[0.1,0.2,0],[0.9,0.2,0],[0.5,0,0],[0.995,0.63,0],[0.72,0.99,0],[0.5,1,0],[0.28,0.99,0]];shape=mxgraph.kubernetes.icon;prIcon=node;verticalAlign=top;labelPosition=center;verticalLabelPosition=bottom;align=center;fontSize=11;" vertex="1" parent="c6Vy-CROt2XTyNM5Ch-J-2">
          <mxGeometry x="280" y="170" width="40" height="60" as="geometry" />
        </mxCell>
        <mxCell id="c6Vy-CROt2XTyNM5Ch-J-28" value="Kubernetes&lt;br style=&quot;font-size: 11px;&quot;&gt;Nodes" style="sketch=0;html=1;dashed=0;whitespace=wrap;fillColor=#2875E2;strokeColor=#ffffff;points=[[0.005,0.63,0],[0.1,0.2,0],[0.9,0.2,0],[0.5,0,0],[0.995,0.63,0],[0.72,0.99,0],[0.5,1,0],[0.28,0.99,0]];shape=mxgraph.kubernetes.icon;prIcon=node;verticalAlign=top;labelPosition=center;verticalLabelPosition=bottom;align=center;fontSize=11;" vertex="1" parent="c6Vy-CROt2XTyNM5Ch-J-2">
          <mxGeometry x="415" y="170" width="40" height="60" as="geometry" />
        </mxCell>
        <mxCell id="c6Vy-CROt2XTyNM5Ch-J-29" value="Kubernetes&lt;br style=&quot;font-size: 11px;&quot;&gt;Nodes" style="sketch=0;html=1;dashed=0;whitespace=wrap;fillColor=#2875E2;strokeColor=#ffffff;points=[[0.005,0.63,0],[0.1,0.2,0],[0.9,0.2,0],[0.5,0,0],[0.995,0.63,0],[0.72,0.99,0],[0.5,1,0],[0.28,0.99,0]];shape=mxgraph.kubernetes.icon;prIcon=node;verticalAlign=top;labelPosition=center;verticalLabelPosition=bottom;align=center;fontSize=11;" vertex="1" parent="c6Vy-CROt2XTyNM5Ch-J-2">
          <mxGeometry x="480" y="170" width="40" height="60" as="geometry" />
        </mxCell>
        <mxCell id="c6Vy-CROt2XTyNM5Ch-J-30" value="Kubernetes&lt;br style=&quot;font-size: 11px;&quot;&gt;Nodes" style="sketch=0;html=1;dashed=0;whitespace=wrap;fillColor=#2875E2;strokeColor=#ffffff;points=[[0.005,0.63,0],[0.1,0.2,0],[0.9,0.2,0],[0.5,0,0],[0.995,0.63,0],[0.72,0.99,0],[0.5,1,0],[0.28,0.99,0]];shape=mxgraph.kubernetes.icon;prIcon=node;verticalAlign=top;labelPosition=center;verticalLabelPosition=bottom;align=center;fontSize=11;" vertex="1" parent="c6Vy-CROt2XTyNM5Ch-J-2">
          <mxGeometry x="545" y="170" width="40" height="60" as="geometry" />
        </mxCell>
        <mxCell id="c6Vy-CROt2XTyNM5Ch-J-31" value="Kubernetes&lt;br style=&quot;font-size: 11px;&quot;&gt;Nodes" style="sketch=0;html=1;dashed=0;whitespace=wrap;fillColor=#2875E2;strokeColor=#ffffff;points=[[0.005,0.63,0],[0.1,0.2,0],[0.9,0.2,0],[0.5,0,0],[0.995,0.63,0],[0.72,0.99,0],[0.5,1,0],[0.28,0.99,0]];shape=mxgraph.kubernetes.icon;prIcon=node;verticalAlign=top;labelPosition=center;verticalLabelPosition=bottom;align=center;fontSize=11;" vertex="1" parent="c6Vy-CROt2XTyNM5Ch-J-2">
          <mxGeometry x="610" y="170" width="40" height="60" as="geometry" />
        </mxCell>
        <mxCell id="c6Vy-CROt2XTyNM5Ch-J-32" value="ESXi Host" style="pointerEvents=1;shadow=0;dashed=0;html=1;strokeColor=none;fillColor=#4495D1;labelPosition=center;verticalLabelPosition=bottom;verticalAlign=top;align=center;outlineConnect=0;shape=mxgraph.veeam.vmware_host;" vertex="1" parent="c6Vy-CROt2XTyNM5Ch-J-2">
          <mxGeometry x="410" y="260" width="250" height="210" as="geometry" />
        </mxCell>
        <mxCell id="5G6M97Ru5O6IGqaMy1Rf-28" value="Distributed Resource Scheduler (vSphere DRS)" style="points=[[0,0],[0.25,0],[0.5,0],[0.75,0],[1,0],[1,0.25],[1,0.5],[1,0.75],[1,1],[0.75,1],[0.5,1],[0.25,1],[0,1],[0,0.75],[0,0.5],[0,0.25]];outlineConnect=0;gradientColor=none;html=1;whiteSpace=wrap;fontSize=12;fontStyle=0;shape=mxgraph.aws4.groupCenter;grIcon=mxgraph.aws4.group_auto_scaling_group;grStroke=1;strokeColor=#D86613;fillColor=none;verticalAlign=bottom;align=center;fontColor=#D86613;dashed=1;spacingTop=25;labelPosition=center;verticalLabelPosition=top;" parent="c6Vy-CROt2XTyNM5Ch-J-2" vertex="1">
          <mxGeometry x="50" y="170" width="640" height="700" as="geometry" />
        </mxCell>
        <mxCell id="c6Vy-CROt2XTyNM5Ch-J-38" value="" style="sketch=0;pointerEvents=1;shadow=0;dashed=0;html=1;strokeColor=none;fillColor=#434445;labelPosition=center;verticalLabelPosition=bottom;verticalAlign=top;align=center;outlineConnect=0;shape=mxgraph.vvd.vcenter_server;aspect=fixed;" vertex="1" parent="c6Vy-CROt2XTyNM5Ch-J-2">
          <mxGeometry x="410" y="110" width="38.4" height="40" as="geometry" />
        </mxCell>
        <mxCell id="c6Vy-CROt2XTyNM5Ch-J-40" value="" style="sketch=0;pointerEvents=1;shadow=0;dashed=0;html=1;strokeColor=none;fillColor=#434445;labelPosition=center;verticalLabelPosition=bottom;verticalAlign=top;align=center;outlineConnect=0;shape=mxgraph.vvd.vcenter_server;aspect=fixed;" vertex="1" parent="c6Vy-CROt2XTyNM5Ch-J-2">
          <mxGeometry x="80" y="110" width="38.4" height="40" as="geometry" />
        </mxCell>
        <mxCell id="c6Vy-CROt2XTyNM5Ch-J-42" value="" style="edgeStyle=orthogonalEdgeStyle;html=1;endArrow=block;elbow=vertical;startArrow=block;startFill=1;endFill=1;strokeColor=#545B64;rounded=0;fontSize=11;" edge="1" parent="c6Vy-CROt2XTyNM5Ch-J-2">
          <mxGeometry width="100" relative="1" as="geometry">
            <mxPoint x="690" y="519.5" as="sourcePoint" />
            <mxPoint x="750" y="519.5" as="targetPoint" />
          </mxGeometry>
        </mxCell>
        <mxCell id="5G6M97Ru5O6IGqaMy1Rf-36" value="Internet Gateway" style="outlineConnect=0;fontColor=#232F3E;gradientColor=none;fillColor=#232F3E;strokeColor=none;dashed=0;verticalLabelPosition=bottom;verticalAlign=top;align=center;html=1;fontSize=12;fontStyle=0;aspect=fixed;pointerEvents=1;shape=mxgraph.aws4.internet_alt2;" parent="c6Vy-CROt2XTyNM5Ch-J-2" vertex="1">
          <mxGeometry x="346" y="10" width="48" height="48" as="geometry" />
        </mxCell>
        <mxCell id="5G6M97Ru5O6IGqaMy1Rf-37" value="Users" style="outlineConnect=0;fontColor=#232F3E;gradientColor=none;fillColor=#232F3E;strokeColor=none;dashed=0;verticalLabelPosition=bottom;verticalAlign=top;align=center;html=1;fontSize=12;fontStyle=0;aspect=fixed;pointerEvents=1;shape=mxgraph.aws4.users;" parent="1" vertex="1">
          <mxGeometry x="-680" y="-910" width="40" height="40" as="geometry" />
        </mxCell>
        <mxCell id="qwnYjMg2ZhFjHXtGNQKZ-23" value="Kubernetes&lt;br style=&quot;font-size: 11px;&quot;&gt;Nodes" style="sketch=0;html=1;dashed=0;whitespace=wrap;fillColor=#2875E2;strokeColor=#ffffff;points=[[0.005,0.63,0],[0.1,0.2,0],[0.9,0.2,0],[0.5,0,0],[0.995,0.63,0],[0.72,0.99,0],[0.5,1,0],[0.28,0.99,0]];shape=mxgraph.kubernetes.icon;prIcon=node;verticalAlign=top;labelPosition=center;verticalLabelPosition=bottom;align=center;fontSize=11;" parent="1" vertex="1">
          <mxGeometry x="-945" y="-300" width="40" height="60" as="geometry" />
        </mxCell>
        <mxCell id="c6Vy-CROt2XTyNM5Ch-J-4" value="ESXi Host" style="pointerEvents=1;shadow=0;dashed=0;html=1;strokeColor=none;fillColor=#4495D1;labelPosition=center;verticalLabelPosition=bottom;verticalAlign=top;align=center;outlineConnect=0;shape=mxgraph.veeam.vmware_host;" vertex="1" parent="1">
          <mxGeometry x="-950" y="-210" width="250" height="210" as="geometry" />
        </mxCell>
        <mxCell id="c6Vy-CROt2XTyNM5Ch-J-8" value="Kubernetes&lt;br style=&quot;font-size: 11px;&quot;&gt;Nodes" style="sketch=0;html=1;dashed=0;whitespace=wrap;fillColor=#2875E2;strokeColor=#ffffff;points=[[0.005,0.63,0],[0.1,0.2,0],[0.9,0.2,0],[0.5,0,0],[0.995,0.63,0],[0.72,0.99,0],[0.5,1,0],[0.28,0.99,0]];shape=mxgraph.kubernetes.icon;prIcon=node;verticalAlign=top;labelPosition=center;verticalLabelPosition=bottom;align=center;fontSize=11;" vertex="1" parent="1">
          <mxGeometry x="-880" y="-300" width="40" height="60" as="geometry" />
        </mxCell>
        <mxCell id="c6Vy-CROt2XTyNM5Ch-J-9" value="Kubernetes&lt;br style=&quot;font-size: 11px;&quot;&gt;Nodes" style="sketch=0;html=1;dashed=0;whitespace=wrap;fillColor=#2875E2;strokeColor=#ffffff;points=[[0.005,0.63,0],[0.1,0.2,0],[0.9,0.2,0],[0.5,0,0],[0.995,0.63,0],[0.72,0.99,0],[0.5,1,0],[0.28,0.99,0]];shape=mxgraph.kubernetes.icon;prIcon=node;verticalAlign=top;labelPosition=center;verticalLabelPosition=bottom;align=center;fontSize=11;" vertex="1" parent="1">
          <mxGeometry x="-815" y="-300" width="40" height="60" as="geometry" />
        </mxCell>
        <mxCell id="c6Vy-CROt2XTyNM5Ch-J-10" value="Kubernetes&lt;br style=&quot;font-size: 11px;&quot;&gt;Nodes" style="sketch=0;html=1;dashed=0;whitespace=wrap;fillColor=#2875E2;strokeColor=#ffffff;points=[[0.005,0.63,0],[0.1,0.2,0],[0.9,0.2,0],[0.5,0,0],[0.995,0.63,0],[0.72,0.99,0],[0.5,1,0],[0.28,0.99,0]];shape=mxgraph.kubernetes.icon;prIcon=node;verticalAlign=top;labelPosition=center;verticalLabelPosition=bottom;align=center;fontSize=11;" vertex="1" parent="1">
          <mxGeometry x="-750" y="-300" width="40" height="60" as="geometry" />
        </mxCell>
        <mxCell id="c6Vy-CROt2XTyNM5Ch-J-33" value="Kubernetes&lt;br style=&quot;font-size: 11px;&quot;&gt;Nodes" style="sketch=0;html=1;dashed=0;whitespace=wrap;fillColor=#2875E2;strokeColor=#ffffff;points=[[0.005,0.63,0],[0.1,0.2,0],[0.9,0.2,0],[0.5,0,0],[0.995,0.63,0],[0.72,0.99,0],[0.5,1,0],[0.28,0.99,0]];shape=mxgraph.kubernetes.icon;prIcon=node;verticalAlign=top;labelPosition=center;verticalLabelPosition=bottom;align=center;fontSize=11;" vertex="1" parent="1">
          <mxGeometry x="-615" y="-300" width="40" height="60" as="geometry" />
        </mxCell>
        <mxCell id="c6Vy-CROt2XTyNM5Ch-J-34" value="Kubernetes&lt;br style=&quot;font-size: 11px;&quot;&gt;Nodes" style="sketch=0;html=1;dashed=0;whitespace=wrap;fillColor=#2875E2;strokeColor=#ffffff;points=[[0.005,0.63,0],[0.1,0.2,0],[0.9,0.2,0],[0.5,0,0],[0.995,0.63,0],[0.72,0.99,0],[0.5,1,0],[0.28,0.99,0]];shape=mxgraph.kubernetes.icon;prIcon=node;verticalAlign=top;labelPosition=center;verticalLabelPosition=bottom;align=center;fontSize=11;" vertex="1" parent="1">
          <mxGeometry x="-550" y="-300" width="40" height="60" as="geometry" />
        </mxCell>
        <mxCell id="c6Vy-CROt2XTyNM5Ch-J-35" value="Kubernetes&lt;br style=&quot;font-size: 11px;&quot;&gt;Nodes" style="sketch=0;html=1;dashed=0;whitespace=wrap;fillColor=#2875E2;strokeColor=#ffffff;points=[[0.005,0.63,0],[0.1,0.2,0],[0.9,0.2,0],[0.5,0,0],[0.995,0.63,0],[0.72,0.99,0],[0.5,1,0],[0.28,0.99,0]];shape=mxgraph.kubernetes.icon;prIcon=node;verticalAlign=top;labelPosition=center;verticalLabelPosition=bottom;align=center;fontSize=11;" vertex="1" parent="1">
          <mxGeometry x="-485" y="-300" width="40" height="60" as="geometry" />
        </mxCell>
        <mxCell id="c6Vy-CROt2XTyNM5Ch-J-36" value="Kubernetes&lt;br style=&quot;font-size: 11px;&quot;&gt;Nodes" style="sketch=0;html=1;dashed=0;whitespace=wrap;fillColor=#2875E2;strokeColor=#ffffff;points=[[0.005,0.63,0],[0.1,0.2,0],[0.9,0.2,0],[0.5,0,0],[0.995,0.63,0],[0.72,0.99,0],[0.5,1,0],[0.28,0.99,0]];shape=mxgraph.kubernetes.icon;prIcon=node;verticalAlign=top;labelPosition=center;verticalLabelPosition=bottom;align=center;fontSize=11;" vertex="1" parent="1">
          <mxGeometry x="-420" y="-300" width="40" height="60" as="geometry" />
        </mxCell>
        <mxCell id="c6Vy-CROt2XTyNM5Ch-J-37" value="ESXi Host" style="pointerEvents=1;shadow=0;dashed=0;html=1;strokeColor=none;fillColor=#4495D1;labelPosition=center;verticalLabelPosition=bottom;verticalAlign=top;align=center;outlineConnect=0;shape=mxgraph.veeam.vmware_host;" vertex="1" parent="1">
          <mxGeometry x="-620" y="-210" width="250" height="210" as="geometry" />
        </mxCell>
        <mxCell id="c6Vy-CROt2XTyNM5Ch-J-1" value="AWS EKS&lt;br&gt;Anywhere" style="sketch=0;points=[[0,0,0],[0.25,0,0],[0.5,0,0],[0.75,0,0],[1,0,0],[0,1,0],[0.25,1,0],[0.5,1,0],[0.75,1,0],[1,1,0],[0,0.25,0],[0,0.5,0],[0,0.75,0],[1,0.25,0],[1,0.5,0],[1,0.75,0]];outlineConnect=0;fontColor=#232F3E;gradientColor=#F78E04;gradientDirection=north;fillColor=#D05C17;strokeColor=#ffffff;dashed=0;verticalLabelPosition=bottom;verticalAlign=top;align=center;html=1;fontSize=12;fontStyle=0;aspect=fixed;shape=mxgraph.aws4.resourceIcon;resIcon=mxgraph.aws4.eks_anywhere;" vertex="1" parent="1">
          <mxGeometry x="-280" y="-360" width="78" height="78" as="geometry" />
        </mxCell>
      </root>
    </mxGraphModel>
  </diagram>
</mxfile>
